<?xml version="1.0" encoding="UTF-8"?>
<!DOCTYPE svg PUBLIC "-//W3C//DTD SVG 1.1//EN" "http://www.w3.org/Graphics/SVG/1.1/DTD/svg11.dtd">
<!-- Creator: CorelDRAW -->
<svg xmlns="http://www.w3.org/2000/svg" xml:space="preserve" width="7.91666in" height="4.375in" style="shape-rendering:geometricPrecision; text-rendering:geometricPrecision; image-rendering:optimizeQuality; fill-rule:evenodd; clip-rule:evenodd"
viewBox="0 0 7.91666 4.375">
 <defs>
  <style type="text/css">
   <![CDATA[
    .str0 {stroke:#7F7F7F;stroke-width:0.003}
    .str1 {stroke:white;stroke-width:0.003}
    .fil4 {fill:none;fill-rule:nonzero}
    .fil1 {fill:#7F7F7F}
    .fil2 {fill:white}
    .fil0 {fill:#7F7F7F;fill-rule:nonzero}
    .fil3 {fill:#CCCCCC;fill-rule:nonzero}
   ]]>
  </style>
 </defs>
 <g id="Layer_x0020_1">
  <metadata id="CorelCorpID_0Corel-Layer"/>
  <g id="_150259976">
   <path id="_150317024" class="fil0" d="M2.67633 2.17969l0.160319 -0.021874c0.00406299,0.102504 0.0234409,0.172823 0.0575039,0.210638 0.034378,0.037815 0.0815669,0.056563 0.141882,0.056563 0.0446929,0 0.0831299,-0.01 0.115319,-0.030626 0.0325039,-0.020315 0.0546929,-0.048126 0.0668819,-0.0831299 0.012189,-0.035315 0.018437,-0.0912559 0.018437,-0.168134l0 -0.92474 0.177512 0 0 0.91474c0,0.112193 -0.0134409,0.199386 -0.0406299,0.260953 -0.027189,0.061563 -0.070315,0.108441 -0.129067,0.140945 -0.0590669,0.032189 -0.128134,0.0484409 -0.207512,0.0484409 -0.117819,0 -0.207827,-0.033752 -0.270642,-0.101571 -0.0625039,-0.067815 -0.0925039,-0.168445 -0.0900039,-0.302205z"/>
   <path id="_150892928" class="fil1 str0" d="M2.61989 1.21233l3.22337 0 0.14878 0.250984c0.237075,-0.0942283 0.564724,-0.147264 0.916713,0.0880354l-0.0595748 0.0140827c0.0739882,0.16339 0.196402,0.280248 0.182075,0.481626 -0.320508,-0.213949 -0.424972,0.33378 -1.13101,-0.0398858 -0.0151102,-0.242157 -0.013126,-0.333323 0.0258937,-0.51565l-0.119909 -0.213669 -3.17023 0.048311 -0.0161024 -0.113835z"/>
   <rect id="_150892856" class="fil2 str0" x="6.03984" y="1.57414" width="0.279192" height="0.324775" rx="0.237008" ry="0.237008"/>
   <path id="_150892568" class="fil1 str0" d="M5.90267 2.13064c0.129213,0.0884882 0.291504,0.11474 0.424894,0.0875709 0.23787,-0.0484567 0.457059,-0.30363 0.70274,-0.045315 -0.000854331,0.0749843 -0.00509843,0.121118 -0.0334331,0.154882 0.0801772,0.00620866 0.0239921,0.30337 0.0127756,0.371102 -0.0089685,-0.0248858 -0.0199961,-0.0463937 -0.0409606,-0.0516417 -0.107587,-0.017248 -0.138047,-0.0277244 -0.21428,0.0141457 -0.0731181,0.0623976 -0.165201,0.0319016 -0.246894,-0.00246063 -0.161437,-0.0679055 -0.348685,-0.0115787 -0.562185,0.0764724 -0.0265827,-0.000311024 -0.0493228,-0.00732283 -0.0452323,-0.0613031 -0.00846457,-0.196685 -0.0119016,-0.385008 0.0025748,-0.543453z"/>
   <ellipse id="_150892424" class="fil1 str1" cx="6.31715" cy="2.74923" rx="0.265088" ry="0.271113"/>
   <ellipse id="_150892280" class="fil2 str1" cx="6.32077" cy="2.74725" rx="0.152596" ry="0.157769"/>
   <polygon id="_150316904" class="fil3" points="3.98984,2.46883 3.98984,1.55556 3.64869,1.55556 3.64869,1.43332 4.46938,1.43332 4.46938,1.55556 4.12678,1.55556 4.12678,2.46883 "/>
   <path id="_150316904" class="fil3" d="M4.6056 2.46883l0 -1.03551 0.206382 0 0.244953 0.733177c0.0226614,0.0682283 0.0392992,0.119343 0.0494252,0.153339 0.011815,-0.0376142 0.0301378,-0.0930669 0.0552126,-0.166118l0.247846 -0.720398 0.184437 0 0 1.03551 -0.132118 0 0 -0.866744 -0.30089 0.866744 -0.123685 0 -0.299441 -0.881453 0 0.881453 -0.132122 0z"/>
   <polygon id="_150316832" class="fil1 str0" points="2.20324,2.81695 2.71869,2.80996 3.42741,2.81718 3.82737,2.80854 4.29665,2.8101 5.56402,2.8075 5.93933,2.52047 5.94047,2.62406 5.62231,2.88693 2.21659,2.89753 "/>
   <path id="_150315872" class="fil0" d="M1.93228 3.30399l0.0409646 -0.00466535c0.00103543,0.0218504 0.00598425,0.0368346 0.0146929,0.0448976 0.00878346,0.00805906 0.0208425,0.0120551 0.036252,0.0120551 0.0114173,0 0.0212402,-0.00212992 0.0294646,-0.00652756 0.00830709,-0.00433071 0.0139764,-0.0102598 0.0170906,-0.0177165 0.00311417,-0.00752756 0.00470866,-0.0194528 0.00470866,-0.0358386l0 -0.197102 0.0453583 0 0 0.194972c0,0.0239134 -0.00343307,0.0424961 -0.010378,0.0556181 -0.00694882,0.013122 -0.0179685,0.0231142 -0.0329843,0.0300433 -0.0150906,0.00685827 -0.0327402,0.0103228 -0.0530197,0.0103228 -0.0301063,0 -0.0531063,-0.00719291 -0.0691496,-0.0216496 -0.0159724,-0.0144528 -0.0236378,-0.0359016 -0.023,-0.0644094z"/>
   <path id="_150315872" class="fil0" d="M2.49141 3.24817c0,0.0386339 -0.0148543,0.071874 -0.0444764,0.0997165 -0.0309055,0.0289094 -0.0692323,0.0433661 -0.115071,0.0433661 -0.0459921,0 -0.0844055,-0.0143898 -0.115146,-0.0431654 -0.029626,-0.0277087 -0.0443976,-0.0610157 -0.0443976,-0.0999173 0,-0.0385 0.0149291,-0.0717402 0.044874,-0.0997165 0.0309055,-0.0289764 0.0690748,-0.0434961 0.114669,-0.0434961 0.0456772,0 0.0840039,0.0145197 0.114831,0.0434961 0.0297835,0.0278425 0.0447165,0.0610827 0.0447165,0.0997165zm-0.056374 -0.000531496c0,-0.0255118 -0.00950787,-0.0476929 -0.0285906,-0.0665433 -0.0199606,-0.0200512 -0.0449567,-0.0301102 -0.0750591,-0.0301102 -0.0297874,0 -0.054622,0.0101929 -0.0744252,0.0304409 -0.018685,0.0190512 -0.0280276,0.0412992 -0.0280276,0.0667441 0,0.025378 0.00934252,0.047563 0.0280276,0.0665472 0.0198031,0.020315 0.0446378,0.0304409 0.0744252,0.0304409 0.0302638,0 0.0553346,-0.010126 0.0752953,-0.0304409 0.0189291,-0.0189843 0.0283543,-0.0413661 0.0283543,-0.0670787z"/>
   <path id="_150315872" class="fil0" d="M2.59409 3.38106c0,0.00273228 -0.00223228,0.00412992 -0.0067874,0.00412992 -0.00279134,0 -0.00702756,-0.000200787 -0.0128543,-0.000598425 -0.00574803,-0.000401575 -0.010063,-0.000602362 -0.0128583,-0.000602362 -0.00295276,0 -0.00734252,0.000200787 -0.0130945,0.000602362 -0.00574803,0.000397638 -0.0100591,0.000598425 -0.0128583,0.000598425 -0.00391339,0 -0.00582677,-0.00146457 -0.00582677,-0.00446457 0,-0.0148543 0.00080315,-0.0371654 0.00239764,-0.0670748 0.00167323,-0.0298425 0.00247244,-0.0522244 0.00247244,-0.0672126 0,-0.0144528 -0.000799213,-0.0361024 -0.00247244,-0.0650787 -0.00159449,-0.0289724 -0.00239764,-0.050622 -0.00239764,-0.0650787 0,-0.00326378 0.00175984,-0.0048622 0.00535039,-0.0048622 0.00295669,0 0.00750394,0.000200787 0.0135748,0.000535433 0.00607087,0.000397638 0.0107008,0.000598425 0.013815,0.000598425 0.00279134,0 0.00702756,-0.000200787 0.0126142,-0.000598425 0.00559449,-0.000334646 0.00982283,-0.000535433 0.012622,-0.000535433 0.00407087,0 0.00606693,0.00126772 0.00606693,0.00386614 0,0.0145866 -0.000559055,0.0364331 -0.00183858,0.0656102 -0.00127559,0.0291102 -0.00183858,0.0509567 -0.00183858,0.0655433 0,0.0149882 0.000645669,0.037437 0.00191732,0.0673465 0.00135827,0.0299055 0.00199606,0.0523543 0.00199606,0.0672756z"/>
   <path id="_150315872" class="fil0" d="M2.93754 3.11568c0,0.0149882 -0.000637795,0.0375669 -0.00183858,0.0677441 -0.00127165,0.0301732 -0.00191339,0.0528228 -0.00191339,0.067874 0,0.014189 0.00015748,0.035437 0.000480315,0.063748 0.000314961,0.028311 0.000476378,0.0494921 0.000476378,0.0636811 0,0.00433071 -0.00191732,0.00646063 -0.00583071,0.00646063 -0.00231102,0 -0.00582677,-0.000200787 -0.0105354,-0.000598425 -0.0047126,-0.000401575 -0.00822835,-0.000602362 -0.0105394,-0.000602362 -0.00248031,0 -0.00631102,0.000200787 -0.0114213,0.000602362 -0.00519291,0.000397638 -0.00902362,0.000598425 -0.0115,0.000598425 -0.00279134,0 -0.00614961,-0.00212992 -0.0100591,-0.00646063 -0.0337008,-0.0378346 -0.0847244,-0.0943228 -0.15324,-0.169394 -0.0106181,-0.0114567 -0.0167677,-0.0177835 -0.0184449,-0.0191142 -0.00159843,0 -0.00239764,0.00266142 -0.00239764,0.00799213 0,0.0200512 0.000401575,0.0501575 0.00120079,0.0902559 0.000795276,0.0401693 0.00119685,0.0702756 0.00119685,0.0902598 0,0.00433071 -0.00159843,0.00646063 -0.0047126,0.00646063 -0.00263386,0 -0.00670866,-0.000200787 -0.0121339,-0.000598425 -0.00551181,-0.000401575 -0.00950787,-0.000602362 -0.0122205,-0.000602362 -0.00279528,0 -0.00694882,0.000200787 -0.0124567,0.000602362 -0.00559055,0.000397638 -0.00974016,0.000598425 -0.0125394,0.000598425 -0.00391339,0 -0.00582677,-0.00133071 -0.00582677,-0.00392913 0,-0.0142559 0.00080315,-0.0358386 0.00239764,-0.0646811 0.00167323,-0.0287756 0.00247244,-0.0504252 0.00247244,-0.064878 0,-0.0157205 -0.000716535,-0.0440945 -0.00207087,-0.085063 -0.000322835,-0.0106575 -0.00111811,-0.0267087 -0.0023189,-0.0480276l-0.000240157 -0.00252756c-0.000161417,-0.00193307 0.00167323,-0.003 0.00558661,-0.00313386 0.0101417,-0.000129921 0.0180472,-0.000397638 0.023878,-0.000799213 0.00215748,-0.000129921 0.00631102,-0.000598425 0.012378,-0.0015315 0.00511417,-0.000799213 0.0091811,-0.00119685 0.0121339,-0.00119685 0.00144094,0 0.00383858,0.00192913 0.00727165,0.00566142 0.0358543,0.0410984 0.0907913,0.102248 0.164732,0.183445 0.00327559,0.00339764 0.00631102,0.00632677 0.0091063,0.00879134 0.00111811,-0.00546063 0.00159843,-0.0179173 0.00159843,-0.0374331 0,-0.0169213 -0.000720472,-0.0422992 -0.00215748,-0.0761378 -0.00151969,-0.0338386 -0.00223622,-0.0591496 -0.00223622,-0.075937 0,-0.00425984 0.00151575,-0.0063937 0.00462992,-0.0063937 0.00287402,0 0.0071063,0.000200787 0.0127756,0.000535433 0.00567323,0.000397638 0.00998031,0.000598425 0.0127756,0.000598425 0.00295669,0 0.00742913,-0.000200787 0.0133386,-0.000598425 0.00590945,-0.000334646 0.010378,-0.000535433 0.0133346,-0.000535433 0.00327165,0 0.00487008,0.00140157 0.00487008,0.00426378z"/>
   <path id="_150315872" class="fil0" d="M3.3245 3.14826c0,0.0033937 -0.00135827,0.00512598 -0.00415354,0.00512598 -0.00438976,0 -0.0320197,-0.000799213 -0.0828898,-0.00239764 -0.00135433,0.0397008 -0.0020748,0.0715394 -0.0020748,0.0954528 0,0.0149882 0.000641732,0.037437 0.00199606,0.0673465 0.00135827,0.0299055 0.00199606,0.0523543 0.00199606,0.0672756 0,0.00273228 -0.00223228,0.00412992 -0.0067874,0.00412992 -0.00279134,0 -0.0071063,-0.000200787 -0.0128543,-0.000598425 -0.00574803,-0.000401575 -0.0101417,-0.000602362 -0.0130984,-0.000602362 -0.00279134,0 -0.00710236,0.000200787 -0.0128543,0.000602362 -0.00583071,0.000397638 -0.0100591,0.000598425 -0.0129331,0.000598425 -0.00383858,0 -0.00583465,-0.00159843 -0.00583465,-0.0048622 0,-0.0148543 0.00080315,-0.0371024 0.00224016,-0.066878 0.00151969,-0.0297087 0.00223622,-0.0520236 0.00223622,-0.0670118 0,-0.0231772 -0.000877953,-0.0549528 -0.00255512,-0.0954528 -0.040248,0.00213386 -0.0697126,0.00312992 -0.0884764,0.00312992 -0.00183858,0 -0.00279528,-0.000665354 -0.00279528,-0.00192913 0,-0.00233071 0.000716535,-0.00572835 0.0020748,-0.010126 0.00175591,-0.00572835 0.00279528,-0.00912598 0.00311417,-0.0101929 0.00023622,-0.00452756 0.00135827,-0.0108543 0.00327165,-0.0189173 0.000724409,-0.00166535 0.00207874,-0.0025315 0.00391339,-0.0025315l0.00287402 0.000200787c0.0551811,0.00273228 0.0915945,0.00406299 0.10924,0.00406299 0.0155709,0 0.0410433,-0.000933071 0.0764961,-0.00292913 0.0241181,-0.00126772 0.0341811,-0.00193307 0.030189,-0.00193307 0.00399213,0 0.00630709,0.00120079 0.0067874,0.0035315 -0.000322835,-0.00146457 -0.000480315,0.0048622 -0.000480315,0.0189173 0,0.00173228 0.00023622,0.00433071 0.000720472,0.0079252 0.000393701,0.0035315 0.000637795,0.00626378 0.000637795,0.00806299z"/>
   <path id="_150315872" class="fil0" d="M3.64783 3.38072c0,0.003 -0.0023189,0.00446457 -0.00702756,0.00446457 -0.00263386,0 -0.00670472,-0.000200787 -0.0122992,-0.000598425 -0.00550787,-0.000401575 -0.00966142,-0.000602362 -0.0124567,-0.000602362 -0.0030315,0 -0.00750394,0.000200787 -0.0134921,0.000602362 -0.00598819,0.000397638 -0.0104646,0.000598425 -0.0134173,0.000598425 -0.00359055,0 -0.00542913,-0.00146457 -0.00542913,-0.00446457 0,-0.0117205 0.000476378,-0.0293071 0.00127559,-0.052689 0.000877953,-0.0234449 0.00135827,-0.0410315 0.00135827,-0.052689 0,-0.00512598 -0.00183465,-0.00805906 -0.00543307,-0.00879134 -0.00462992,-0.00106693 -0.0316181,-0.00159843 -0.0809685,-0.00159843 -0.0491063,0 -0.0760984,0.000531496 -0.0808898,0.00159843 -0.00343307,0.000732283 -0.00518504,0.00366535 -0.00518504,0.00879134 0,0.0113898 0.000393701,0.0286457 0.00119291,0.0516929 0.00080315,0.0230472 0.00119685,0.0402323 0.00119685,0.051689 0,0.00433071 -0.00199606,0.00646063 -0.00590945,0.00646063 -0.00295276,0 -0.00734252,-0.000200787 -0.0133307,-0.000598425 -0.00590945,-0.000401575 -0.0103031,-0.000602362 -0.0133386,-0.000602362 -0.00279528,0 -0.00694882,0.000200787 -0.0124567,0.000602362 -0.00559055,0.000397638 -0.00974016,0.000598425 -0.0125394,0.000598425 -0.00391339,0 -0.00582677,-0.00146457 -0.00582677,-0.00446457 0,-0.0143189 0.00080315,-0.0358346 0.00239764,-0.0645433 0.00167323,-0.0286417 0.00247244,-0.0501575 0.00247244,-0.0644803 0,-0.0150551 -0.000799213,-0.0377677 -0.00247244,-0.0680079 -0.00159449,-0.0302441 -0.00239764,-0.0528898 -0.00239764,-0.0680118 0,-0.0028622 0.00191339,-0.00426378 0.00582677,-0.00426378 0.00279921,0 0.00711024,0.000200787 0.0128583,0.000535433 0.00575197,0.000397638 0.0101417,0.000598425 0.0130945,0.000598425 0.00279528,0 0.00718898,-0.000200787 0.0130984,-0.000598425 0.00590945,-0.000334646 0.0102992,-0.000535433 0.0130984,-0.000535433 0.00359055,0 0.0054252,0.00113386 0.0054252,0.00346457 0,0.011189 -0.000637795,0.0280433 -0.00175591,0.0504921 -0.00119685,0.0224488 -0.00175591,0.0392323 -0.00175591,0.0504252 0,0.00366142 0.00159843,0.00585827 0.00487402,0.00665748 0.00390945,0.00113386 0.031378,0.00173228 0.0823228,0.00173228 0.0499094,0 0.0772165,-0.000598425 0.0819331,-0.00173228 0.00359055,-0.000799213 0.00534646,-0.00359449 0.00534646,-0.00838976 0,-0.0109252 -0.000393701,-0.027378 -0.00127953,-0.0494252 -0.000877953,-0.0219843 -0.00127165,-0.038437 -0.00127165,-0.0493583 0,-0.00259843 0.00175591,-0.00386614 0.00534646,-0.00386614 0.00303543,0 0.00734646,0.000200787 0.0130157,0.000535433 0.00566929,0.000397638 0.00998425,0.000598425 0.0130157,0.000598425 0.00279528,0 0.00694882,-0.000200787 0.0126181,-0.000598425 0.00558661,-0.000334646 0.0098189,-0.000535433 0.0126142,-0.000535433 0.0040748,0 0.00607087,0.00140157 0.00607087,0.00426378 0,0.015122 -0.000799213,0.0377677 -0.00231496,0.0680118 -0.00159843,0.0302402 -0.00231496,0.0529528 -0.00231496,0.0680079 0,0.0143228 0.000795276,0.0358386 0.00255118,0.0644803 0.0016811,0.0287087 0.00255906,0.0502244 0.00255906,0.0645433z"/>
   <path id="_150315872" class="fil0" d="M3.91733 3.34596c0,0.00206299 -0.000637795,0.00505906 -0.00183858,0.00899213 -0.00143701,0.00492913 -0.00231496,0.0079252 -0.00263386,0.00899213 -0.000397638,0.00466142 -0.00151969,0.0115236 -0.00327165,0.0204488 -0.000720472,0.00233071 -0.00279528,0.0035315 -0.00607087,0.0035315 -0.00151575,0 -0.0044685,-0.000267717 -0.0088622,-0.000799213 -0.0191693,-0.00233465 -0.0488701,-0.00346457 -0.0891181,-0.00346457 -0.0114173,0 -0.0285866,0.000200787 -0.0515039,0.000732283 -0.0229173,0.000531496 -0.0400866,0.000799213 -0.0514252,0.000799213 -0.00518898,0 -0.00774803,-0.00186614 -0.00774803,-0.00566142 0,-0.0145866 0.00096063,-0.036437 0.00295669,-0.0656772 0.00191732,-0.0291772 0.00287402,-0.0510906 0.00287402,-0.0656811 0,-0.0147874 -0.000877953,-0.0424291 -0.00279528,-0.0829291 -0.000314961,-0.0103898 -0.00119685,-0.0259134 -0.00255118,-0.0466299l-0.000240157 -0.00272835c-0.000161417,-0.003 0.00183465,-0.00446457 0.00606693,-0.00446457 0.0109409,0 0.0273071,0.000267717 0.0491102,0.000732283 0.021878,0.000535433 0.038248,0.000799213 0.049185,0.000799213 0.0103858,0 0.0260354,-0.00026378 0.046878,-0.000799213 0.0208425,-0.000464567 0.0364094,-0.000732283 0.046874,-0.000732283 0.00734252,0 0.0113386,0.00186614 0.0119724,0.00566142 0.00327559,0.017122 0.00487402,0.0278465 0.00487402,0.0319764 0,0.00299606 -0.00167717,0.00446063 -0.0051063,0.00446063 -0.0132598,0 -0.0333858,-0.000598425 -0.0602913,-0.00179921 -0.0268307,-0.00126378 -0.0471142,-0.0018622 -0.060689,-0.0018622 -0.0127756,0 -0.0208425,0.00139764 -0.0241929,0.00425984 -0.00335433,0.00286614 -0.0050315,0.00999213 -0.0050315,0.0213189l0 0.0290394c0,0.00792913 0.00023622,0.0125906 0.000716535,0.0138543 0.0013622,0.00406693 0.00542913,0.00606299 0.0121417,0.00606299 0.00191339,0 0.00454724,-6.69291e-005 0.00798425,-0.000200787 0.00359055,0 0.00622441,0 0.00790551,0 0.0305827,0 0.0580512,-0.000464567 0.0824055,-0.00139764 0.00950394,-0.000200787 0.0206811,-0.000866142 0.0336181,-0.00193307 0.00327559,-0.00026378 0.00494882,0.000933071 0.00494882,0.0035315 0,0.00412992 -0.000555118,0.0105236 -0.00175591,0.0191181 -0.00119685,0.00859449 -0.00175591,0.0150551 -0.00175591,0.019315 0,0.00233465 -0.00231496,0.0035315 -0.00702756,0.0035315 -0.00183465,0 -0.00878346,-0.000464567 -0.0208425,-0.00139764 -0.00870079,-0.000732283 -0.0283425,-0.00113386 -0.0589291,-0.00113386 -0.0257126,0 -0.0420039,0.000267717 -0.0488701,0.000732283 -0.00622835,0.000401575 -0.00982283,0.00313386 -0.0107795,0.00819291 0.000161417,-0.000866142 0.000240157,0.00412992 0.000240157,0.0150551l0 0.0289094c0,0.0135236 0.00247244,0.0219803 0.00750394,0.025378 0.00391339,0.00273228 0.0136535,0.00406299 0.0292283,0.00406299l0.0257087 -0.00019685c0.0109409,0 0.0416024,-0.00153543 0.0919921,-0.00466535l0.00351575 -0.00019685c0.00311417,-0.000267717 0.00462992,0.00133071 0.00462992,0.0048622z"/>
   <path id="_150315872" class="fil0" d="M4.40235 3.38033c0,0.00326378 -0.00199606,0.0048622 -0.00582677,0.0048622 -0.00287402,0 -0.00711024,-0.000200787 -0.0127756,-0.000598425 -0.00566929,-0.000401575 -0.00998425,-0.000602362 -0.0127756,-0.000602362 -0.00279528,0 -0.00711024,0.000200787 -0.0128583,0.000602362 -0.00574803,0.000397638 -0.010063,0.000598425 -0.0128543,0.000598425 -0.00391339,0 -0.00583071,-0.00212992 -0.00583071,-0.00646063 0,-0.0165197 0.000637795,-0.0412992 0.00183465,-0.0743386 0.00127953,-0.0330394 0.00191732,-0.0578189 0.00191732,-0.0743386 0,-0.00246457 -0.000637795,-0.00372835 -0.00191732,-0.00372835 -0.00135433,0 -0.00247244,0.000732283 -0.00326772,0.00212992 -0.00790551,0.014189 -0.026752,0.0520906 -0.056378,0.113638 -0.00479528,0.0117913 -0.0117402,0.0265787 -0.0208425,0.0442992 -0.00103543,0.00166535 -0.00670866,0.00252756 -0.0168465,0.00252756 -0.0146142,0 -0.0227598,-0.00112992 -0.0242795,-0.00332677 -0.00534646,-0.0105276 -0.0128543,-0.025315 -0.0226772,-0.0442992 -0.0130157,-0.0257756 -0.0328976,-0.0641457 -0.0596457,-0.115169 -0.000484252,-0.000866142 -0.00151969,-0.00179921 -0.00311811,-0.00273228 -0.00119685,0.000799213 -0.00183465,0.00220079 -0.00183465,0.00433071 0,0.0167874 0.000314961,0.0419646 0.00103937,0.0755354 0.000716535,0.0335079 0.00103937,0.058685 0.00103937,0.0754724 0,0.00433071 -0.00191732,0.00646063 -0.00583465,0.00646063 -0.00263386,0 -0.00670866,-0.000200787 -0.0121339,-0.000598425 -0.00551181,-0.000401575 -0.00950787,-0.000602362 -0.0122205,-0.000602362 -0.00279528,0 -0.00694882,0.000200787 -0.0124567,0.000602362 -0.00559055,0.000397638 -0.00974016,0.000598425 -0.0125394,0.000598425 -0.00391339,0 -0.00582677,-0.00126378 -0.00582677,-0.00372835 0,-0.0143898 0.00080315,-0.0360394 0.00239764,-0.0648819 0.00167323,-0.0287756 0.00247244,-0.0504252 0.00247244,-0.064878 0,-0.0149882 -0.000799213,-0.037437 -0.00247244,-0.0674094 -0.00159449,-0.0299764 -0.00239764,-0.0524921 -0.00239764,-0.0674094 0,-0.00246457 0.00175984,-0.00393307 0.00535039,-0.00433071 0.0212402,-0.00233071 0.0372087,-0.0035315 0.0479882,-0.0035315 0.00151969,0 0.00375984,0.00273228 0.00655118,0.00805906 0.0376929,0.0692087 0.0701929,0.130957 0.0972598,0.185378 0.0064685,0.0127244 0.0102205,0.0191181 0.0115,0.0191181 0.00159449,0 0.00495276,-0.00519291 0.0100591,-0.0155866 0.0212441,-0.0421654 0.050626,-0.10478 0.0881575,-0.187776 0.00239764,-0.00506299 0.00495276,-0.00759449 0.00774409,-0.00759449 0.00535433,0 0.0133386,0.000267717 0.0239567,0.000799213 0.0107008,0.000468504 0.018685,0.000732283 0.0240394,0.000732283 0.00391339,0 0.00582677,0.00159843 0.00582677,0.00473228 0,0.0149173 -0.000559055,0.0374331 -0.00175591,0.0674094 -0.00119685,0.0299724 -0.00175984,0.0524213 -0.00175984,0.0674094 0,0.0143228 0.000641732,0.0357717 0.00199606,0.0644134 0.0013622,0.0286417 0.00199606,0.0500236 0.00199606,0.0642126z"/>
   <path id="_150315872" class="fil0" d="M4.76097 3.24817c0,0.0386339 -0.0148543,0.071874 -0.0444764,0.0997165 -0.0309055,0.0289094 -0.0692323,0.0433661 -0.115071,0.0433661 -0.0459921,0 -0.0844055,-0.0143898 -0.115146,-0.0431654 -0.029626,-0.0277087 -0.0443976,-0.0610157 -0.0443976,-0.0999173 0,-0.0385 0.0149291,-0.0717402 0.044874,-0.0997165 0.0309055,-0.0289764 0.0690748,-0.0434961 0.114669,-0.0434961 0.0456772,0 0.0840039,0.0145197 0.114831,0.0434961 0.0297835,0.0278425 0.0447165,0.0610827 0.0447165,0.0997165zm-0.056374 -0.000531496c0,-0.0255118 -0.00950787,-0.0476929 -0.0285906,-0.0665433 -0.0199606,-0.0200512 -0.0449567,-0.0301102 -0.0750591,-0.0301102 -0.0297874,0 -0.054622,0.0101929 -0.0744252,0.0304409 -0.018685,0.0190512 -0.0280276,0.0412992 -0.0280276,0.0667441 0,0.025378 0.00934252,0.047563 0.0280276,0.0665472 0.0198031,0.020315 0.0446378,0.0304409 0.0744252,0.0304409 0.0302638,0 0.0553346,-0.010126 0.0752953,-0.0304409 0.0189291,-0.0189843 0.0283543,-0.0413661 0.0283543,-0.0670787z"/>
   <path id="_150315872" class="fil0" d="M5.05714 3.20894c0,0.00552756 -0.015252,0.0323071 -0.0458346,0.0804646 -0.0193268,0.0300433 -0.0386496,0.0600827 -0.0580512,0.090126 -0.0023189,0.00379528 -0.00487008,0.00566142 -0.00766929,0.00566142l-0.0470315 0c-0.00215748,0 -0.0043937,-0.00186614 -0.00654724,-0.00566142 -0.000480315,-0.000799213 -0.0190039,-0.0299094 -0.0556575,-0.0873937 -0.0313819,-0.0493583 -0.0470315,-0.0762717 -0.0470315,-0.0807992 0,-0.0103228 0.000397638,-0.0257795 0.00127559,-0.0463622 0.000877953,-0.0206496 0.00127953,-0.0361024 0.00127953,-0.0463622 0,-0.00479528 0.00183465,-0.00719291 0.00558661,-0.00719291 0.00295276,0 0.00735039,0.000200787 0.0130157,0.000535433 0.00566929,0.000397638 0.00998425,0.000598425 0.012937,0.000598425 0.00287402,0 0.00711024,-0.000200787 0.012937,-0.000598425 0.00574803,-0.000334646 0.010063,-0.000535433 0.0128583,-0.000535433 0.00359055,0 0.00534646,0.00120079 0.00534646,0.00366535 0,0.0105906 -0.000799213,0.0264449 -0.00247244,0.047626 -0.00159843,0.021248 -0.00239764,0.0371693 -0.00239764,0.0478268 0,0.00885827 0.0241142,0.0482913 0.0725079,0.118232 0.0127756,-0.0181811 0.0266693,-0.0390984 0.0416024,-0.0626142 0.0217205,-0.0341024 0.0325,-0.0541535 0.0325,-0.0600827 0,-0.010189 -0.000322835,-0.025311 -0.00111811,-0.0454921 -0.000799213,-0.020185 -0.00120079,-0.0352402 -0.00120079,-0.0452953 0,-0.00259843 0.00175984,-0.00386614 0.00519291,-0.00386614 0.00295276,0 0.00726772,0.000200787 0.0130984,0.000535433 0.00574803,0.000397638 0.0100591,0.000598425 0.0128543,0.000598425 0.00279528,0 0.00702756,-0.000200787 0.0127756,-0.000598425 0.00566929,-0.000334646 0.00990157,-0.000535433 0.0126969,-0.000535433 0.00343701,0 0.00543307,0.00120079 0.00582677,0.00366535 -0.00015748,-0.000866142 -0.000240157,0.00159843 -0.000240157,0.00746063 0,0.00959055 0.000161417,0.0239803 0.000484252,0.0432283 0.000318898,0.019185 0.000476378,0.0335748 0.000476378,0.0431654z"/>
   <path id="_150315872" class="fil0" d="M5.31754 3.34596c0,0.00206299 -0.000637795,0.00505906 -0.00183858,0.00899213 -0.00143701,0.00492913 -0.00231496,0.0079252 -0.00263386,0.00899213 -0.000397638,0.00466142 -0.00151969,0.0115236 -0.00327165,0.0204488 -0.000720472,0.00233071 -0.00279528,0.0035315 -0.00607087,0.0035315 -0.00151575,0 -0.0044685,-0.000267717 -0.0088622,-0.000799213 -0.0191693,-0.00233465 -0.0488701,-0.00346457 -0.0891181,-0.00346457 -0.0114173,0 -0.0285866,0.000200787 -0.0515039,0.000732283 -0.0229173,0.000531496 -0.0400866,0.000799213 -0.0514252,0.000799213 -0.00518898,0 -0.00774803,-0.00186614 -0.00774803,-0.00566142 0,-0.0145866 0.00096063,-0.036437 0.00295669,-0.0656772 0.00191732,-0.0291772 0.00287402,-0.0510906 0.00287402,-0.0656811 0,-0.0147874 -0.000877953,-0.0424291 -0.00279528,-0.0829291 -0.000314961,-0.0103898 -0.00119685,-0.0259134 -0.00255118,-0.0466299l-0.000240157 -0.00272835c-0.000161417,-0.003 0.00183465,-0.00446457 0.00606693,-0.00446457 0.0109409,0 0.0273071,0.000267717 0.0491102,0.000732283 0.021878,0.000535433 0.038248,0.000799213 0.049185,0.000799213 0.0103858,0 0.0260354,-0.00026378 0.046878,-0.000799213 0.0208425,-0.000464567 0.0364094,-0.000732283 0.046874,-0.000732283 0.00734252,0 0.0113386,0.00186614 0.0119724,0.00566142 0.00327559,0.017122 0.00487402,0.0278465 0.00487402,0.0319764 0,0.00299606 -0.00167717,0.00446063 -0.0051063,0.00446063 -0.0132598,0 -0.0333858,-0.000598425 -0.0602913,-0.00179921 -0.0268307,-0.00126378 -0.0471142,-0.0018622 -0.060689,-0.0018622 -0.0127756,0 -0.0208425,0.00139764 -0.0241929,0.00425984 -0.00335433,0.00286614 -0.0050315,0.00999213 -0.0050315,0.0213189l0 0.0290394c0,0.00792913 0.00023622,0.0125906 0.000716535,0.0138543 0.0013622,0.00406693 0.00542913,0.00606299 0.0121417,0.00606299 0.00191339,0 0.00454724,-6.69291e-005 0.00798425,-0.000200787 0.00359055,0 0.00622441,0 0.00790551,0 0.0305827,0 0.0580512,-0.000464567 0.0824055,-0.00139764 0.00950394,-0.000200787 0.0206811,-0.000866142 0.0336181,-0.00193307 0.00327559,-0.00026378 0.00494882,0.000933071 0.00494882,0.0035315 0,0.00412992 -0.000555118,0.0105236 -0.00175591,0.0191181 -0.00119685,0.00859449 -0.00175591,0.0150551 -0.00175591,0.019315 0,0.00233465 -0.00231496,0.0035315 -0.00702756,0.0035315 -0.00183465,0 -0.00878346,-0.000464567 -0.0208425,-0.00139764 -0.00870079,-0.000732283 -0.0283425,-0.00113386 -0.0589291,-0.00113386 -0.0257126,0 -0.0420039,0.000267717 -0.0488701,0.000732283 -0.00622835,0.000401575 -0.00982283,0.00313386 -0.0107795,0.00819291 0.000161417,-0.000866142 0.000240157,0.00412992 0.000240157,0.0150551l0 0.0289094c0,0.0135236 0.00247244,0.0219803 0.00750394,0.025378 0.00391339,0.00273228 0.0136535,0.00406299 0.0292283,0.00406299l0.0257087 -0.00019685c0.0109409,0 0.0416024,-0.00153543 0.0919921,-0.00466535l0.00351575 -0.00019685c0.00311417,-0.000267717 0.00462992,0.00133071 0.00462992,0.0048622z"/>
   <path id="_150315872" class="fil0" d="M5.68278 3.38033c0,0.00326378 -0.00199606,0.0048622 -0.00582677,0.0048622 -0.00287402,0 -0.00711024,-0.000200787 -0.0127756,-0.000598425 -0.00566929,-0.000401575 -0.00998425,-0.000602362 -0.0127756,-0.000602362 -0.00279528,0 -0.00711024,0.000200787 -0.0128583,0.000602362 -0.00574803,0.000397638 -0.010063,0.000598425 -0.0128543,0.000598425 -0.00391339,0 -0.00583071,-0.00212992 -0.00583071,-0.00646063 0,-0.0165197 0.000637795,-0.0412992 0.00183465,-0.0743386 0.00127953,-0.0330394 0.00191732,-0.0578189 0.00191732,-0.0743386 0,-0.00246457 -0.000637795,-0.00372835 -0.00191732,-0.00372835 -0.00135433,0 -0.00247244,0.000732283 -0.00326772,0.00212992 -0.00790551,0.014189 -0.026752,0.0520906 -0.056378,0.113638 -0.00479528,0.0117913 -0.0117402,0.0265787 -0.0208425,0.0442992 -0.00103543,0.00166535 -0.00670866,0.00252756 -0.0168465,0.00252756 -0.0146142,0 -0.0227598,-0.00112992 -0.0242795,-0.00332677 -0.00534646,-0.0105276 -0.0128543,-0.025315 -0.0226772,-0.0442992 -0.0130157,-0.0257756 -0.0328976,-0.0641457 -0.0596457,-0.115169 -0.000484252,-0.000866142 -0.00151969,-0.00179921 -0.00311811,-0.00273228 -0.00119685,0.000799213 -0.00183465,0.00220079 -0.00183465,0.00433071 0,0.0167874 0.000314961,0.0419646 0.00103937,0.0755354 0.000716535,0.0335079 0.00103937,0.058685 0.00103937,0.0754724 0,0.00433071 -0.00191732,0.00646063 -0.00583465,0.00646063 -0.00263386,0 -0.00670866,-0.000200787 -0.0121339,-0.000598425 -0.00551181,-0.000401575 -0.00950787,-0.000602362 -0.0122205,-0.000602362 -0.00279528,0 -0.00694882,0.000200787 -0.0124567,0.000602362 -0.00559055,0.000397638 -0.00974016,0.000598425 -0.0125394,0.000598425 -0.00391339,0 -0.00582677,-0.00126378 -0.00582677,-0.00372835 0,-0.0143898 0.00080315,-0.0360394 0.00239764,-0.0648819 0.00167323,-0.0287756 0.00247244,-0.0504252 0.00247244,-0.064878 0,-0.0149882 -0.000799213,-0.037437 -0.00247244,-0.0674094 -0.00159449,-0.0299764 -0.00239764,-0.0524921 -0.00239764,-0.0674094 0,-0.00246457 0.00175984,-0.00393307 0.00535039,-0.00433071 0.0212402,-0.00233071 0.0372087,-0.0035315 0.0479882,-0.0035315 0.00151969,0 0.00375984,0.00273228 0.00655118,0.00805906 0.0376929,0.0692087 0.0701929,0.130957 0.0972598,0.185378 0.0064685,0.0127244 0.0102205,0.0191181 0.0115,0.0191181 0.00159449,0 0.00495276,-0.00519291 0.0100591,-0.0155866 0.0212441,-0.0421654 0.050626,-0.10478 0.0881575,-0.187776 0.00239764,-0.00506299 0.00495276,-0.00759449 0.00774409,-0.00759449 0.00535433,0 0.0133386,0.000267717 0.0239567,0.000799213 0.0107008,0.000468504 0.018685,0.000732283 0.0240394,0.000732283 0.00391339,0 0.00582677,0.00159843 0.00582677,0.00473228 0,0.0149173 -0.000559055,0.0374331 -0.00175591,0.0674094 -0.00119685,0.0299724 -0.00175984,0.0524213 -0.00175984,0.0674094 0,0.0143228 0.000641732,0.0357717 0.00199606,0.0644134 0.0013622,0.0286417 0.00199606,0.0500236 0.00199606,0.0642126z"/>
   <path id="_150315872" class="fil0" d="M5.95389 3.34596c0,0.00206299 -0.000637795,0.00505906 -0.00183858,0.00899213 -0.00143701,0.00492913 -0.00231496,0.0079252 -0.00263386,0.00899213 -0.000397638,0.00466142 -0.00151969,0.0115236 -0.00327165,0.0204488 -0.000720472,0.00233071 -0.00279528,0.0035315 -0.00607087,0.0035315 -0.00151575,0 -0.0044685,-0.000267717 -0.0088622,-0.000799213 -0.0191693,-0.00233465 -0.0488701,-0.00346457 -0.0891181,-0.00346457 -0.0114173,0 -0.0285866,0.000200787 -0.0515039,0.000732283 -0.0229173,0.000531496 -0.0400866,0.000799213 -0.0514252,0.000799213 -0.00518898,0 -0.00774803,-0.00186614 -0.00774803,-0.00566142 0,-0.0145866 0.00096063,-0.036437 0.00295669,-0.0656772 0.00191732,-0.0291772 0.00287402,-0.0510906 0.00287402,-0.0656811 0,-0.0147874 -0.000877953,-0.0424291 -0.00279528,-0.0829291 -0.000314961,-0.0103898 -0.00119685,-0.0259134 -0.00255118,-0.0466299l-0.000240157 -0.00272835c-0.000161417,-0.003 0.00183465,-0.00446457 0.00606693,-0.00446457 0.0109409,0 0.0273071,0.000267717 0.0491102,0.000732283 0.021878,0.000535433 0.038248,0.000799213 0.049185,0.000799213 0.0103858,0 0.0260354,-0.00026378 0.046878,-0.000799213 0.0208425,-0.000464567 0.0364094,-0.000732283 0.046874,-0.000732283 0.00734252,0 0.0113386,0.00186614 0.0119724,0.00566142 0.00327559,0.017122 0.00487402,0.0278465 0.00487402,0.0319764 0,0.00299606 -0.00167717,0.00446063 -0.0051063,0.00446063 -0.0132598,0 -0.0333858,-0.000598425 -0.0602913,-0.00179921 -0.0268307,-0.00126378 -0.0471142,-0.0018622 -0.060689,-0.0018622 -0.0127756,0 -0.0208425,0.00139764 -0.0241929,0.00425984 -0.00335433,0.00286614 -0.0050315,0.00999213 -0.0050315,0.0213189l0 0.0290394c0,0.00792913 0.00023622,0.0125906 0.000716535,0.0138543 0.0013622,0.00406693 0.00542913,0.00606299 0.0121417,0.00606299 0.00191339,0 0.00454724,-6.69291e-005 0.00798425,-0.000200787 0.00359055,0 0.00622441,0 0.00790551,0 0.0305827,0 0.0580512,-0.000464567 0.0824055,-0.00139764 0.00950394,-0.000200787 0.0206811,-0.000866142 0.0336181,-0.00193307 0.00327559,-0.00026378 0.00494882,0.000933071 0.00494882,0.0035315 0,0.00412992 -0.000555118,0.0105236 -0.00175591,0.0191181 -0.00119685,0.00859449 -0.00175591,0.0150551 -0.00175591,0.019315 0,0.00233465 -0.00231496,0.0035315 -0.00702756,0.0035315 -0.00183465,0 -0.00878346,-0.000464567 -0.0208425,-0.00139764 -0.00870079,-0.000732283 -0.0283425,-0.00113386 -0.0589291,-0.00113386 -0.0257126,0 -0.0420039,0.000267717 -0.0488701,0.000732283 -0.00622835,0.000401575 -0.00982283,0.00313386 -0.0107795,0.00819291 0.000161417,-0.000866142 0.000240157,0.00412992 0.000240157,0.0150551l0 0.0289094c0,0.0135236 0.00247244,0.0219803 0.00750394,0.025378 0.00391339,0.00273228 0.0136535,0.00406299 0.0292283,0.00406299l0.0257087 -0.00019685c0.0109409,0 0.0416024,-0.00153543 0.0919921,-0.00466535l0.00351575 -0.00019685c0.00311417,-0.000267717 0.00462992,0.00133071 0.00462992,0.0048622z"/>
   <path id="_150315872" class="fil0" d="M6.28448 3.11568c0,0.0149882 -0.000637795,0.0375669 -0.00183858,0.0677441 -0.00127165,0.0301732 -0.00191339,0.0528228 -0.00191339,0.067874 0,0.014189 0.00015748,0.035437 0.000480315,0.063748 0.000314961,0.028311 0.000476378,0.0494921 0.000476378,0.0636811 0,0.00433071 -0.00191732,0.00646063 -0.00583071,0.00646063 -0.00231102,0 -0.00582677,-0.000200787 -0.0105354,-0.000598425 -0.0047126,-0.000401575 -0.00822835,-0.000602362 -0.0105394,-0.000602362 -0.00248031,0 -0.00631102,0.000200787 -0.0114213,0.000602362 -0.00519291,0.000397638 -0.00902362,0.000598425 -0.0115,0.000598425 -0.00279134,0 -0.00614961,-0.00212992 -0.0100591,-0.00646063 -0.0337008,-0.0378346 -0.0847244,-0.0943228 -0.15324,-0.169394 -0.0106181,-0.0114567 -0.0167677,-0.0177835 -0.0184449,-0.0191142 -0.00159843,0 -0.00239764,0.00266142 -0.00239764,0.00799213 0,0.0200512 0.000401575,0.0501575 0.00120079,0.0902559 0.000795276,0.0401693 0.00119685,0.0702756 0.00119685,0.0902598 0,0.00433071 -0.00159843,0.00646063 -0.0047126,0.00646063 -0.00263386,0 -0.00670866,-0.000200787 -0.0121339,-0.000598425 -0.00551181,-0.000401575 -0.00950787,-0.000602362 -0.0122205,-0.000602362 -0.00279528,0 -0.00694882,0.000200787 -0.0124567,0.000602362 -0.00559055,0.000397638 -0.00974016,0.000598425 -0.0125394,0.000598425 -0.00391339,0 -0.00582677,-0.00133071 -0.00582677,-0.00392913 0,-0.0142559 0.00080315,-0.0358386 0.00239764,-0.0646811 0.00167323,-0.0287756 0.00247244,-0.0504252 0.00247244,-0.064878 0,-0.0157205 -0.000716535,-0.0440945 -0.00207087,-0.085063 -0.000322835,-0.0106575 -0.00111811,-0.0267087 -0.0023189,-0.0480276l-0.000240157 -0.00252756c-0.000161417,-0.00193307 0.00167323,-0.003 0.00558661,-0.00313386 0.0101417,-0.000129921 0.0180472,-0.000397638 0.023878,-0.000799213 0.00215748,-0.000129921 0.00631102,-0.000598425 0.012378,-0.0015315 0.00511417,-0.000799213 0.0091811,-0.00119685 0.0121339,-0.00119685 0.00144094,0 0.00383858,0.00192913 0.00727165,0.00566142 0.0358543,0.0410984 0.0907913,0.102248 0.164732,0.183445 0.00327559,0.00339764 0.00631102,0.00632677 0.0091063,0.00879134 0.00111811,-0.00546063 0.00159843,-0.0179173 0.00159843,-0.0374331 0,-0.0169213 -0.000720472,-0.0422992 -0.00215748,-0.0761378 -0.00151969,-0.0338386 -0.00223622,-0.0591496 -0.00223622,-0.075937 0,-0.00425984 0.00151575,-0.0063937 0.00462992,-0.0063937 0.00287402,0 0.0071063,0.000200787 0.0127756,0.000535433 0.00567323,0.000397638 0.00998031,0.000598425 0.0127756,0.000598425 0.00295669,0 0.00742913,-0.000200787 0.0133386,-0.000598425 0.00590945,-0.000334646 0.010378,-0.000535433 0.0133346,-0.000535433 0.00327165,0 0.00487008,0.00140157 0.00487008,0.00426378z"/>
   <path id="_150315872" class="fil0" d="M6.55167 3.14826c0,0.0033937 -0.00135827,0.00512598 -0.00415354,0.00512598 -0.00438976,0 -0.0320197,-0.000799213 -0.0828898,-0.00239764 -0.00135433,0.0397008 -0.0020748,0.0715394 -0.0020748,0.0954528 0,0.0149882 0.000641732,0.037437 0.00199606,0.0673465 0.00135827,0.0299055 0.00199606,0.0523543 0.00199606,0.0672756 0,0.00273228 -0.00223228,0.00412992 -0.0067874,0.00412992 -0.00279134,0 -0.0071063,-0.000200787 -0.0128543,-0.000598425 -0.00574803,-0.000401575 -0.0101417,-0.000602362 -0.0130984,-0.000602362 -0.00279134,0 -0.00710236,0.000200787 -0.0128543,0.000602362 -0.00583071,0.000397638 -0.0100591,0.000598425 -0.0129331,0.000598425 -0.00383858,0 -0.00583465,-0.00159843 -0.00583465,-0.0048622 0,-0.0148543 0.00080315,-0.0371024 0.00224016,-0.066878 0.00151969,-0.0297087 0.00223622,-0.0520236 0.00223622,-0.0670118 0,-0.0231772 -0.000877953,-0.0549528 -0.00255512,-0.0954528 -0.040248,0.00213386 -0.0697126,0.00312992 -0.0884764,0.00312992 -0.00183858,0 -0.00279528,-0.000665354 -0.00279528,-0.00192913 0,-0.00233071 0.000716535,-0.00572835 0.0020748,-0.010126 0.00175591,-0.00572835 0.00279528,-0.00912598 0.00311417,-0.0101929 0.00023622,-0.00452756 0.00135827,-0.0108543 0.00327165,-0.0189173 0.000724409,-0.00166535 0.00207874,-0.0025315 0.00391339,-0.0025315l0.00287402 0.000200787c0.0551811,0.00273228 0.0915945,0.00406299 0.10924,0.00406299 0.0155709,0 0.0410433,-0.000933071 0.0764961,-0.00292913 0.0241181,-0.00126772 0.0341811,-0.00193307 0.030189,-0.00193307 0.00399213,0 0.00630709,0.00120079 0.0067874,0.0035315 -0.000322835,-0.00146457 -0.000480315,0.0048622 -0.000480315,0.0189173 0,0.00173228 0.00023622,0.00433071 0.000720472,0.0079252 0.000393701,0.0035315 0.000637795,0.00626378 0.000637795,0.00806299z"/>
   <path id="_150315872" class="fil4 str0" d="M1.93228 3.30399l0.0409646 -0.00466535c0.00103543,0.0218504 0.00598425,0.0368346 0.0146929,0.0448976 0.00878346,0.00805906 0.0208425,0.0120551 0.036252,0.0120551 0.0114173,0 0.0212402,-0.00212992 0.0294646,-0.00652756 0.00830709,-0.00433071 0.0139764,-0.0102598 0.0170906,-0.0177165 0.00311417,-0.00752756 0.00470866,-0.0194528 0.00470866,-0.0358386l0 -0.197102 0.0453583 0 0 0.194972c0,0.0239134 -0.00343307,0.0424961 -0.010378,0.0556181 -0.00694882,0.013122 -0.0179685,0.0231142 -0.0329843,0.0300433 -0.0150906,0.00685827 -0.0327402,0.0103228 -0.0530197,0.0103228 -0.0301063,0 -0.0531063,-0.00719291 -0.0691496,-0.0216496 -0.0159724,-0.0144528 -0.0236378,-0.0359016 -0.023,-0.0644094z"/>
   <path id="_150315872" class="fil4 str0" d="M2.49141 3.24817c0,0.0386339 -0.0148543,0.071874 -0.0444764,0.0997165 -0.0309055,0.0289094 -0.0692323,0.0433661 -0.115071,0.0433661 -0.0459921,0 -0.0844055,-0.0143898 -0.115146,-0.0431654 -0.029626,-0.0277087 -0.0443976,-0.0610157 -0.0443976,-0.0999173 0,-0.0385 0.0149291,-0.0717402 0.044874,-0.0997165 0.0309055,-0.0289764 0.0690748,-0.0434961 0.114669,-0.0434961 0.0456772,0 0.0840039,0.0145197 0.114831,0.0434961 0.0297835,0.0278425 0.0447165,0.0610827 0.0447165,0.0997165zm-0.056374 -0.000531496c0,-0.0255118 -0.00950787,-0.0476929 -0.0285906,-0.0665433 -0.0199606,-0.0200512 -0.0449567,-0.0301102 -0.0750591,-0.0301102 -0.0297874,0 -0.054622,0.0101929 -0.0744252,0.0304409 -0.018685,0.0190512 -0.0280276,0.0412992 -0.0280276,0.0667441 0,0.025378 0.00934252,0.047563 0.0280276,0.0665472 0.0198031,0.020315 0.0446378,0.0304409 0.0744252,0.0304409 0.0302638,0 0.0553346,-0.010126 0.0752953,-0.0304409 0.0189291,-0.0189843 0.0283543,-0.0413661 0.0283543,-0.0670787z"/>
   <path id="_150315872" class="fil4 str0" d="M2.59409 3.38106c0,0.00273228 -0.00223228,0.00412992 -0.0067874,0.00412992 -0.00279134,0 -0.00702756,-0.000200787 -0.0128543,-0.000598425 -0.00574803,-0.000401575 -0.010063,-0.000602362 -0.0128583,-0.000602362 -0.00295276,0 -0.00734252,0.000200787 -0.0130945,0.000602362 -0.00574803,0.000397638 -0.0100591,0.000598425 -0.0128583,0.000598425 -0.00391339,0 -0.00582677,-0.00146457 -0.00582677,-0.00446457 0,-0.0148543 0.00080315,-0.0371654 0.00239764,-0.0670748 0.00167323,-0.0298425 0.00247244,-0.0522244 0.00247244,-0.0672126 0,-0.0144528 -0.000799213,-0.0361024 -0.00247244,-0.0650787 -0.00159449,-0.0289724 -0.00239764,-0.050622 -0.00239764,-0.0650787 0,-0.00326378 0.00175984,-0.0048622 0.00535039,-0.0048622 0.00295669,0 0.00750394,0.000200787 0.0135748,0.000535433 0.00607087,0.000397638 0.0107008,0.000598425 0.013815,0.000598425 0.00279134,0 0.00702756,-0.000200787 0.0126142,-0.000598425 0.00559449,-0.000334646 0.00982283,-0.000535433 0.012622,-0.000535433 0.00407087,0 0.00606693,0.00126772 0.00606693,0.00386614 0,0.0145866 -0.000559055,0.0364331 -0.00183858,0.0656102 -0.00127559,0.0291102 -0.00183858,0.0509567 -0.00183858,0.0655433 0,0.0149882 0.000645669,0.037437 0.00191732,0.0673465 0.00135827,0.0299055 0.00199606,0.0523543 0.00199606,0.0672756z"/>
   <path id="_150315872" class="fil4 str0" d="M2.93754 3.11568c0,0.0149882 -0.000637795,0.0375669 -0.00183858,0.0677441 -0.00127165,0.0301732 -0.00191339,0.0528228 -0.00191339,0.067874 0,0.014189 0.00015748,0.035437 0.000480315,0.063748 0.000314961,0.028311 0.000476378,0.0494921 0.000476378,0.0636811 0,0.00433071 -0.00191732,0.00646063 -0.00583071,0.00646063 -0.00231102,0 -0.00582677,-0.000200787 -0.0105354,-0.000598425 -0.0047126,-0.000401575 -0.00822835,-0.000602362 -0.0105394,-0.000602362 -0.00248031,0 -0.00631102,0.000200787 -0.0114213,0.000602362 -0.00519291,0.000397638 -0.00902362,0.000598425 -0.0115,0.000598425 -0.00279134,0 -0.00614961,-0.00212992 -0.0100591,-0.00646063 -0.0337008,-0.0378346 -0.0847244,-0.0943228 -0.15324,-0.169394 -0.0106181,-0.0114567 -0.0167677,-0.0177835 -0.0184449,-0.0191142 -0.00159843,0 -0.00239764,0.00266142 -0.00239764,0.00799213 0,0.0200512 0.000401575,0.0501575 0.00120079,0.0902559 0.000795276,0.0401693 0.00119685,0.0702756 0.00119685,0.0902598 0,0.00433071 -0.00159843,0.00646063 -0.0047126,0.00646063 -0.00263386,0 -0.00670866,-0.000200787 -0.0121339,-0.000598425 -0.00551181,-0.000401575 -0.00950787,-0.000602362 -0.0122205,-0.000602362 -0.00279528,0 -0.00694882,0.000200787 -0.0124567,0.000602362 -0.00559055,0.000397638 -0.00974016,0.000598425 -0.0125394,0.000598425 -0.00391339,0 -0.00582677,-0.00133071 -0.00582677,-0.00392913 0,-0.0142559 0.00080315,-0.0358386 0.00239764,-0.0646811 0.00167323,-0.0287756 0.00247244,-0.0504252 0.00247244,-0.064878 0,-0.0157205 -0.000716535,-0.0440945 -0.00207087,-0.085063 -0.000322835,-0.0106575 -0.00111811,-0.0267087 -0.0023189,-0.0480276l-0.000240157 -0.00252756c-0.000161417,-0.00193307 0.00167323,-0.003 0.00558661,-0.00313386 0.0101417,-0.000129921 0.0180472,-0.000397638 0.023878,-0.000799213 0.00215748,-0.000129921 0.00631102,-0.000598425 0.012378,-0.0015315 0.00511417,-0.000799213 0.0091811,-0.00119685 0.0121339,-0.00119685 0.00144094,0 0.00383858,0.00192913 0.00727165,0.00566142 0.0358543,0.0410984 0.0907913,0.102248 0.164732,0.183445 0.00327559,0.00339764 0.00631102,0.00632677 0.0091063,0.00879134 0.00111811,-0.00546063 0.00159843,-0.0179173 0.00159843,-0.0374331 0,-0.0169213 -0.000720472,-0.0422992 -0.00215748,-0.0761378 -0.00151969,-0.0338386 -0.00223622,-0.0591496 -0.00223622,-0.075937 0,-0.00425984 0.00151575,-0.0063937 0.00462992,-0.0063937 0.00287402,0 0.0071063,0.000200787 0.0127756,0.000535433 0.00567323,0.000397638 0.00998031,0.000598425 0.0127756,0.000598425 0.00295669,0 0.00742913,-0.000200787 0.0133386,-0.000598425 0.00590945,-0.000334646 0.010378,-0.000535433 0.0133346,-0.000535433 0.00327165,0 0.00487008,0.00140157 0.00487008,0.00426378z"/>
   <path id="_150315872" class="fil4 str0" d="M3.3245 3.14826c0,0.0033937 -0.00135827,0.00512598 -0.00415354,0.00512598 -0.00438976,0 -0.0320197,-0.000799213 -0.0828898,-0.00239764 -0.00135433,0.0397008 -0.0020748,0.0715394 -0.0020748,0.0954528 0,0.0149882 0.000641732,0.037437 0.00199606,0.0673465 0.00135827,0.0299055 0.00199606,0.0523543 0.00199606,0.0672756 0,0.00273228 -0.00223228,0.00412992 -0.0067874,0.00412992 -0.00279134,0 -0.0071063,-0.000200787 -0.0128543,-0.000598425 -0.00574803,-0.000401575 -0.0101417,-0.000602362 -0.0130984,-0.000602362 -0.00279134,0 -0.00710236,0.000200787 -0.0128543,0.000602362 -0.00583071,0.000397638 -0.0100591,0.000598425 -0.0129331,0.000598425 -0.00383858,0 -0.00583465,-0.00159843 -0.00583465,-0.0048622 0,-0.0148543 0.00080315,-0.0371024 0.00224016,-0.066878 0.00151969,-0.0297087 0.00223622,-0.0520236 0.00223622,-0.0670118 0,-0.0231772 -0.000877953,-0.0549528 -0.00255512,-0.0954528 -0.040248,0.00213386 -0.0697126,0.00312992 -0.0884764,0.00312992 -0.00183858,0 -0.00279528,-0.000665354 -0.00279528,-0.00192913 0,-0.00233071 0.000716535,-0.00572835 0.0020748,-0.010126 0.00175591,-0.00572835 0.00279528,-0.00912598 0.00311417,-0.0101929 0.00023622,-0.00452756 0.00135827,-0.0108543 0.00327165,-0.0189173 0.000724409,-0.00166535 0.00207874,-0.0025315 0.00391339,-0.0025315l0.00287402 0.000200787c0.0551811,0.00273228 0.0915945,0.00406299 0.10924,0.00406299 0.0155709,0 0.0410433,-0.000933071 0.0764961,-0.00292913 0.0241181,-0.00126772 0.0341811,-0.00193307 0.030189,-0.00193307 0.00399213,0 0.00630709,0.00120079 0.0067874,0.0035315 -0.000322835,-0.00146457 -0.000480315,0.0048622 -0.000480315,0.0189173 0,0.00173228 0.00023622,0.00433071 0.000720472,0.0079252 0.000393701,0.0035315 0.000637795,0.00626378 0.000637795,0.00806299z"/>
   <path id="_150315872" class="fil4 str0" d="M3.64783 3.38072c0,0.003 -0.0023189,0.00446457 -0.00702756,0.00446457 -0.00263386,0 -0.00670472,-0.000200787 -0.0122992,-0.000598425 -0.00550787,-0.000401575 -0.00966142,-0.000602362 -0.0124567,-0.000602362 -0.0030315,0 -0.00750394,0.000200787 -0.0134921,0.000602362 -0.00598819,0.000397638 -0.0104646,0.000598425 -0.0134173,0.000598425 -0.00359055,0 -0.00542913,-0.00146457 -0.00542913,-0.00446457 0,-0.0117205 0.000476378,-0.0293071 0.00127559,-0.052689 0.000877953,-0.0234449 0.00135827,-0.0410315 0.00135827,-0.052689 0,-0.00512598 -0.00183465,-0.00805906 -0.00543307,-0.00879134 -0.00462992,-0.00106693 -0.0316181,-0.00159843 -0.0809685,-0.00159843 -0.0491063,0 -0.0760984,0.000531496 -0.0808898,0.00159843 -0.00343307,0.000732283 -0.00518504,0.00366535 -0.00518504,0.00879134 0,0.0113898 0.000393701,0.0286457 0.00119291,0.0516929 0.00080315,0.0230472 0.00119685,0.0402323 0.00119685,0.051689 0,0.00433071 -0.00199606,0.00646063 -0.00590945,0.00646063 -0.00295276,0 -0.00734252,-0.000200787 -0.0133307,-0.000598425 -0.00590945,-0.000401575 -0.0103031,-0.000602362 -0.0133386,-0.000602362 -0.00279528,0 -0.00694882,0.000200787 -0.0124567,0.000602362 -0.00559055,0.000397638 -0.00974016,0.000598425 -0.0125394,0.000598425 -0.00391339,0 -0.00582677,-0.00146457 -0.00582677,-0.00446457 0,-0.0143189 0.00080315,-0.0358346 0.00239764,-0.0645433 0.00167323,-0.0286417 0.00247244,-0.0501575 0.00247244,-0.0644803 0,-0.0150551 -0.000799213,-0.0377677 -0.00247244,-0.0680079 -0.00159449,-0.0302441 -0.00239764,-0.0528898 -0.00239764,-0.0680118 0,-0.0028622 0.00191339,-0.00426378 0.00582677,-0.00426378 0.00279921,0 0.00711024,0.000200787 0.0128583,0.000535433 0.00575197,0.000397638 0.0101417,0.000598425 0.0130945,0.000598425 0.00279528,0 0.00718898,-0.000200787 0.0130984,-0.000598425 0.00590945,-0.000334646 0.0102992,-0.000535433 0.0130984,-0.000535433 0.00359055,0 0.0054252,0.00113386 0.0054252,0.00346457 0,0.011189 -0.000637795,0.0280433 -0.00175591,0.0504921 -0.00119685,0.0224488 -0.00175591,0.0392323 -0.00175591,0.0504252 0,0.00366142 0.00159843,0.00585827 0.00487402,0.00665748 0.00390945,0.00113386 0.031378,0.00173228 0.0823228,0.00173228 0.0499094,0 0.0772165,-0.000598425 0.0819331,-0.00173228 0.00359055,-0.000799213 0.00534646,-0.00359449 0.00534646,-0.00838976 0,-0.0109252 -0.000393701,-0.027378 -0.00127953,-0.0494252 -0.000877953,-0.0219843 -0.00127165,-0.038437 -0.00127165,-0.0493583 0,-0.00259843 0.00175591,-0.00386614 0.00534646,-0.00386614 0.00303543,0 0.00734646,0.000200787 0.0130157,0.000535433 0.00566929,0.000397638 0.00998425,0.000598425 0.0130157,0.000598425 0.00279528,0 0.00694882,-0.000200787 0.0126181,-0.000598425 0.00558661,-0.000334646 0.0098189,-0.000535433 0.0126142,-0.000535433 0.0040748,0 0.00607087,0.00140157 0.00607087,0.00426378 0,0.015122 -0.000799213,0.0377677 -0.00231496,0.0680118 -0.00159843,0.0302402 -0.00231496,0.0529528 -0.00231496,0.0680079 0,0.0143228 0.000795276,0.0358386 0.00255118,0.0644803 0.0016811,0.0287087 0.00255906,0.0502244 0.00255906,0.0645433z"/>
   <path id="_150315872" class="fil4 str0" d="M3.91733 3.34596c0,0.00206299 -0.000637795,0.00505906 -0.00183858,0.00899213 -0.00143701,0.00492913 -0.00231496,0.0079252 -0.00263386,0.00899213 -0.000397638,0.00466142 -0.00151969,0.0115236 -0.00327165,0.0204488 -0.000720472,0.00233071 -0.00279528,0.0035315 -0.00607087,0.0035315 -0.00151575,0 -0.0044685,-0.000267717 -0.0088622,-0.000799213 -0.0191693,-0.00233465 -0.0488701,-0.00346457 -0.0891181,-0.00346457 -0.0114173,0 -0.0285866,0.000200787 -0.0515039,0.000732283 -0.0229173,0.000531496 -0.0400866,0.000799213 -0.0514252,0.000799213 -0.00518898,0 -0.00774803,-0.00186614 -0.00774803,-0.00566142 0,-0.0145866 0.00096063,-0.036437 0.00295669,-0.0656772 0.00191732,-0.0291772 0.00287402,-0.0510906 0.00287402,-0.0656811 0,-0.0147874 -0.000877953,-0.0424291 -0.00279528,-0.0829291 -0.000314961,-0.0103898 -0.00119685,-0.0259134 -0.00255118,-0.0466299l-0.000240157 -0.00272835c-0.000161417,-0.003 0.00183465,-0.00446457 0.00606693,-0.00446457 0.0109409,0 0.0273071,0.000267717 0.0491102,0.000732283 0.021878,0.000535433 0.038248,0.000799213 0.049185,0.000799213 0.0103858,0 0.0260354,-0.00026378 0.046878,-0.000799213 0.0208425,-0.000464567 0.0364094,-0.000732283 0.046874,-0.000732283 0.00734252,0 0.0113386,0.00186614 0.0119724,0.00566142 0.00327559,0.017122 0.00487402,0.0278465 0.00487402,0.0319764 0,0.00299606 -0.00167717,0.00446063 -0.0051063,0.00446063 -0.0132598,0 -0.0333858,-0.000598425 -0.0602913,-0.00179921 -0.0268307,-0.00126378 -0.0471142,-0.0018622 -0.060689,-0.0018622 -0.0127756,0 -0.0208425,0.00139764 -0.0241929,0.00425984 -0.00335433,0.00286614 -0.0050315,0.00999213 -0.0050315,0.0213189l0 0.0290394c0,0.00792913 0.00023622,0.0125906 0.000716535,0.0138543 0.0013622,0.00406693 0.00542913,0.00606299 0.0121417,0.00606299 0.00191339,0 0.00454724,-6.69291e-005 0.00798425,-0.000200787 0.00359055,0 0.00622441,0 0.00790551,0 0.0305827,0 0.0580512,-0.000464567 0.0824055,-0.00139764 0.00950394,-0.000200787 0.0206811,-0.000866142 0.0336181,-0.00193307 0.00327559,-0.00026378 0.00494882,0.000933071 0.00494882,0.0035315 0,0.00412992 -0.000555118,0.0105236 -0.00175591,0.0191181 -0.00119685,0.00859449 -0.00175591,0.0150551 -0.00175591,0.019315 0,0.00233465 -0.00231496,0.0035315 -0.00702756,0.0035315 -0.00183465,0 -0.00878346,-0.000464567 -0.0208425,-0.00139764 -0.00870079,-0.000732283 -0.0283425,-0.00113386 -0.0589291,-0.00113386 -0.0257126,0 -0.0420039,0.000267717 -0.0488701,0.000732283 -0.00622835,0.000401575 -0.00982283,0.00313386 -0.0107795,0.00819291 0.000161417,-0.000866142 0.000240157,0.00412992 0.000240157,0.0150551l0 0.0289094c0,0.0135236 0.00247244,0.0219803 0.00750394,0.025378 0.00391339,0.00273228 0.0136535,0.00406299 0.0292283,0.00406299l0.0257087 -0.00019685c0.0109409,0 0.0416024,-0.00153543 0.0919921,-0.00466535l0.00351575 -0.00019685c0.00311417,-0.000267717 0.00462992,0.00133071 0.00462992,0.0048622z"/>
   <path id="_150315872" class="fil4 str0" d="M4.40235 3.38033c0,0.00326378 -0.00199606,0.0048622 -0.00582677,0.0048622 -0.00287402,0 -0.00711024,-0.000200787 -0.0127756,-0.000598425 -0.00566929,-0.000401575 -0.00998425,-0.000602362 -0.0127756,-0.000602362 -0.00279528,0 -0.00711024,0.000200787 -0.0128583,0.000602362 -0.00574803,0.000397638 -0.010063,0.000598425 -0.0128543,0.000598425 -0.00391339,0 -0.00583071,-0.00212992 -0.00583071,-0.00646063 0,-0.0165197 0.000637795,-0.0412992 0.00183465,-0.0743386 0.00127953,-0.0330394 0.00191732,-0.0578189 0.00191732,-0.0743386 0,-0.00246457 -0.000637795,-0.00372835 -0.00191732,-0.00372835 -0.00135433,0 -0.00247244,0.000732283 -0.00326772,0.00212992 -0.00790551,0.014189 -0.026752,0.0520906 -0.056378,0.113638 -0.00479528,0.0117913 -0.0117402,0.0265787 -0.0208425,0.0442992 -0.00103543,0.00166535 -0.00670866,0.00252756 -0.0168465,0.00252756 -0.0146142,0 -0.0227598,-0.00112992 -0.0242795,-0.00332677 -0.00534646,-0.0105276 -0.0128543,-0.025315 -0.0226772,-0.0442992 -0.0130157,-0.0257756 -0.0328976,-0.0641457 -0.0596457,-0.115169 -0.000484252,-0.000866142 -0.00151969,-0.00179921 -0.00311811,-0.00273228 -0.00119685,0.000799213 -0.00183465,0.00220079 -0.00183465,0.00433071 0,0.0167874 0.000314961,0.0419646 0.00103937,0.0755354 0.000716535,0.0335079 0.00103937,0.058685 0.00103937,0.0754724 0,0.00433071 -0.00191732,0.00646063 -0.00583465,0.00646063 -0.00263386,0 -0.00670866,-0.000200787 -0.0121339,-0.000598425 -0.00551181,-0.000401575 -0.00950787,-0.000602362 -0.0122205,-0.000602362 -0.00279528,0 -0.00694882,0.000200787 -0.0124567,0.000602362 -0.00559055,0.000397638 -0.00974016,0.000598425 -0.0125394,0.000598425 -0.00391339,0 -0.00582677,-0.00126378 -0.00582677,-0.00372835 0,-0.0143898 0.00080315,-0.0360394 0.00239764,-0.0648819 0.00167323,-0.0287756 0.00247244,-0.0504252 0.00247244,-0.064878 0,-0.0149882 -0.000799213,-0.037437 -0.00247244,-0.0674094 -0.00159449,-0.0299764 -0.00239764,-0.0524921 -0.00239764,-0.0674094 0,-0.00246457 0.00175984,-0.00393307 0.00535039,-0.00433071 0.0212402,-0.00233071 0.0372087,-0.0035315 0.0479882,-0.0035315 0.00151969,0 0.00375984,0.00273228 0.00655118,0.00805906 0.0376929,0.0692087 0.0701929,0.130957 0.0972598,0.185378 0.0064685,0.0127244 0.0102205,0.0191181 0.0115,0.0191181 0.00159449,0 0.00495276,-0.00519291 0.0100591,-0.0155866 0.0212441,-0.0421654 0.050626,-0.10478 0.0881575,-0.187776 0.00239764,-0.00506299 0.00495276,-0.00759449 0.00774409,-0.00759449 0.00535433,0 0.0133386,0.000267717 0.0239567,0.000799213 0.0107008,0.000468504 0.018685,0.000732283 0.0240394,0.000732283 0.00391339,0 0.00582677,0.00159843 0.00582677,0.00473228 0,0.0149173 -0.000559055,0.0374331 -0.00175591,0.0674094 -0.00119685,0.0299724 -0.00175984,0.0524213 -0.00175984,0.0674094 0,0.0143228 0.000641732,0.0357717 0.00199606,0.0644134 0.0013622,0.0286417 0.00199606,0.0500236 0.00199606,0.0642126z"/>
   <path id="_150315872" class="fil4 str0" d="M4.76097 3.24817c0,0.0386339 -0.0148543,0.071874 -0.0444764,0.0997165 -0.0309055,0.0289094 -0.0692323,0.0433661 -0.115071,0.0433661 -0.0459921,0 -0.0844055,-0.0143898 -0.115146,-0.0431654 -0.029626,-0.0277087 -0.0443976,-0.0610157 -0.0443976,-0.0999173 0,-0.0385 0.0149291,-0.0717402 0.044874,-0.0997165 0.0309055,-0.0289764 0.0690748,-0.0434961 0.114669,-0.0434961 0.0456772,0 0.0840039,0.0145197 0.114831,0.0434961 0.0297835,0.0278425 0.0447165,0.0610827 0.0447165,0.0997165zm-0.056374 -0.000531496c0,-0.0255118 -0.00950787,-0.0476929 -0.0285906,-0.0665433 -0.0199606,-0.0200512 -0.0449567,-0.0301102 -0.0750591,-0.0301102 -0.0297874,0 -0.054622,0.0101929 -0.0744252,0.0304409 -0.018685,0.0190512 -0.0280276,0.0412992 -0.0280276,0.0667441 0,0.025378 0.00934252,0.047563 0.0280276,0.0665472 0.0198031,0.020315 0.0446378,0.0304409 0.0744252,0.0304409 0.0302638,0 0.0553346,-0.010126 0.0752953,-0.0304409 0.0189291,-0.0189843 0.0283543,-0.0413661 0.0283543,-0.0670787z"/>
   <path id="_150315872" class="fil4 str0" d="M5.05714 3.20894c0,0.00552756 -0.015252,0.0323071 -0.0458346,0.0804646 -0.0193268,0.0300433 -0.0386496,0.0600827 -0.0580512,0.090126 -0.0023189,0.00379528 -0.00487008,0.00566142 -0.00766929,0.00566142l-0.0470315 0c-0.00215748,0 -0.0043937,-0.00186614 -0.00654724,-0.00566142 -0.000480315,-0.000799213 -0.0190039,-0.0299094 -0.0556575,-0.0873937 -0.0313819,-0.0493583 -0.0470315,-0.0762717 -0.0470315,-0.0807992 0,-0.0103228 0.000397638,-0.0257795 0.00127559,-0.0463622 0.000877953,-0.0206496 0.00127953,-0.0361024 0.00127953,-0.0463622 0,-0.00479528 0.00183465,-0.00719291 0.00558661,-0.00719291 0.00295276,0 0.00735039,0.000200787 0.0130157,0.000535433 0.00566929,0.000397638 0.00998425,0.000598425 0.012937,0.000598425 0.00287402,0 0.00711024,-0.000200787 0.012937,-0.000598425 0.00574803,-0.000334646 0.010063,-0.000535433 0.0128583,-0.000535433 0.00359055,0 0.00534646,0.00120079 0.00534646,0.00366535 0,0.0105906 -0.000799213,0.0264449 -0.00247244,0.047626 -0.00159843,0.021248 -0.00239764,0.0371693 -0.00239764,0.0478268 0,0.00885827 0.0241142,0.0482913 0.0725079,0.118232 0.0127756,-0.0181811 0.0266693,-0.0390984 0.0416024,-0.0626142 0.0217205,-0.0341024 0.0325,-0.0541535 0.0325,-0.0600827 0,-0.010189 -0.000322835,-0.025311 -0.00111811,-0.0454921 -0.000799213,-0.020185 -0.00120079,-0.0352402 -0.00120079,-0.0452953 0,-0.00259843 0.00175984,-0.00386614 0.00519291,-0.00386614 0.00295276,0 0.00726772,0.000200787 0.0130984,0.000535433 0.00574803,0.000397638 0.0100591,0.000598425 0.0128543,0.000598425 0.00279528,0 0.00702756,-0.000200787 0.0127756,-0.000598425 0.00566929,-0.000334646 0.00990157,-0.000535433 0.0126969,-0.000535433 0.00343701,0 0.00543307,0.00120079 0.00582677,0.00366535 -0.00015748,-0.000866142 -0.000240157,0.00159843 -0.000240157,0.00746063 0,0.00959055 0.000161417,0.0239803 0.000484252,0.0432283 0.000318898,0.019185 0.000476378,0.0335748 0.000476378,0.0431654z"/>
   <path id="_150315872" class="fil4 str0" d="M5.31754 3.34596c0,0.00206299 -0.000637795,0.00505906 -0.00183858,0.00899213 -0.00143701,0.00492913 -0.00231496,0.0079252 -0.00263386,0.00899213 -0.000397638,0.00466142 -0.00151969,0.0115236 -0.00327165,0.0204488 -0.000720472,0.00233071 -0.00279528,0.0035315 -0.00607087,0.0035315 -0.00151575,0 -0.0044685,-0.000267717 -0.0088622,-0.000799213 -0.0191693,-0.00233465 -0.0488701,-0.00346457 -0.0891181,-0.00346457 -0.0114173,0 -0.0285866,0.000200787 -0.0515039,0.000732283 -0.0229173,0.000531496 -0.0400866,0.000799213 -0.0514252,0.000799213 -0.00518898,0 -0.00774803,-0.00186614 -0.00774803,-0.00566142 0,-0.0145866 0.00096063,-0.036437 0.00295669,-0.0656772 0.00191732,-0.0291772 0.00287402,-0.0510906 0.00287402,-0.0656811 0,-0.0147874 -0.000877953,-0.0424291 -0.00279528,-0.0829291 -0.000314961,-0.0103898 -0.00119685,-0.0259134 -0.00255118,-0.0466299l-0.000240157 -0.00272835c-0.000161417,-0.003 0.00183465,-0.00446457 0.00606693,-0.00446457 0.0109409,0 0.0273071,0.000267717 0.0491102,0.000732283 0.021878,0.000535433 0.038248,0.000799213 0.049185,0.000799213 0.0103858,0 0.0260354,-0.00026378 0.046878,-0.000799213 0.0208425,-0.000464567 0.0364094,-0.000732283 0.046874,-0.000732283 0.00734252,0 0.0113386,0.00186614 0.0119724,0.00566142 0.00327559,0.017122 0.00487402,0.0278465 0.00487402,0.0319764 0,0.00299606 -0.00167717,0.00446063 -0.0051063,0.00446063 -0.0132598,0 -0.0333858,-0.000598425 -0.0602913,-0.00179921 -0.0268307,-0.00126378 -0.0471142,-0.0018622 -0.060689,-0.0018622 -0.0127756,0 -0.0208425,0.00139764 -0.0241929,0.00425984 -0.00335433,0.00286614 -0.0050315,0.00999213 -0.0050315,0.0213189l0 0.0290394c0,0.00792913 0.00023622,0.0125906 0.000716535,0.0138543 0.0013622,0.00406693 0.00542913,0.00606299 0.0121417,0.00606299 0.00191339,0 0.00454724,-6.69291e-005 0.00798425,-0.000200787 0.00359055,0 0.00622441,0 0.00790551,0 0.0305827,0 0.0580512,-0.000464567 0.0824055,-0.00139764 0.00950394,-0.000200787 0.0206811,-0.000866142 0.0336181,-0.00193307 0.00327559,-0.00026378 0.00494882,0.000933071 0.00494882,0.0035315 0,0.00412992 -0.000555118,0.0105236 -0.00175591,0.0191181 -0.00119685,0.00859449 -0.00175591,0.0150551 -0.00175591,0.019315 0,0.00233465 -0.00231496,0.0035315 -0.00702756,0.0035315 -0.00183465,0 -0.00878346,-0.000464567 -0.0208425,-0.00139764 -0.00870079,-0.000732283 -0.0283425,-0.00113386 -0.0589291,-0.00113386 -0.0257126,0 -0.0420039,0.000267717 -0.0488701,0.000732283 -0.00622835,0.000401575 -0.00982283,0.00313386 -0.0107795,0.00819291 0.000161417,-0.000866142 0.000240157,0.00412992 0.000240157,0.0150551l0 0.0289094c0,0.0135236 0.00247244,0.0219803 0.00750394,0.025378 0.00391339,0.00273228 0.0136535,0.00406299 0.0292283,0.00406299l0.0257087 -0.00019685c0.0109409,0 0.0416024,-0.00153543 0.0919921,-0.00466535l0.00351575 -0.00019685c0.00311417,-0.000267717 0.00462992,0.00133071 0.00462992,0.0048622z"/>
   <path id="_150315872" class="fil4 str0" d="M5.68278 3.38033c0,0.00326378 -0.00199606,0.0048622 -0.00582677,0.0048622 -0.00287402,0 -0.00711024,-0.000200787 -0.0127756,-0.000598425 -0.00566929,-0.000401575 -0.00998425,-0.000602362 -0.0127756,-0.000602362 -0.00279528,0 -0.00711024,0.000200787 -0.0128583,0.000602362 -0.00574803,0.000397638 -0.010063,0.000598425 -0.0128543,0.000598425 -0.00391339,0 -0.00583071,-0.00212992 -0.00583071,-0.00646063 0,-0.0165197 0.000637795,-0.0412992 0.00183465,-0.0743386 0.00127953,-0.0330394 0.00191732,-0.0578189 0.00191732,-0.0743386 0,-0.00246457 -0.000637795,-0.00372835 -0.00191732,-0.00372835 -0.00135433,0 -0.00247244,0.000732283 -0.00326772,0.00212992 -0.00790551,0.014189 -0.026752,0.0520906 -0.056378,0.113638 -0.00479528,0.0117913 -0.0117402,0.0265787 -0.0208425,0.0442992 -0.00103543,0.00166535 -0.00670866,0.00252756 -0.0168465,0.00252756 -0.0146142,0 -0.0227598,-0.00112992 -0.0242795,-0.00332677 -0.00534646,-0.0105276 -0.0128543,-0.025315 -0.0226772,-0.0442992 -0.0130157,-0.0257756 -0.0328976,-0.0641457 -0.0596457,-0.115169 -0.000484252,-0.000866142 -0.00151969,-0.00179921 -0.00311811,-0.00273228 -0.00119685,0.000799213 -0.00183465,0.00220079 -0.00183465,0.00433071 0,0.0167874 0.000314961,0.0419646 0.00103937,0.0755354 0.000716535,0.0335079 0.00103937,0.058685 0.00103937,0.0754724 0,0.00433071 -0.00191732,0.00646063 -0.00583465,0.00646063 -0.00263386,0 -0.00670866,-0.000200787 -0.0121339,-0.000598425 -0.00551181,-0.000401575 -0.00950787,-0.000602362 -0.0122205,-0.000602362 -0.00279528,0 -0.00694882,0.000200787 -0.0124567,0.000602362 -0.00559055,0.000397638 -0.00974016,0.000598425 -0.0125394,0.000598425 -0.00391339,0 -0.00582677,-0.00126378 -0.00582677,-0.00372835 0,-0.0143898 0.00080315,-0.0360394 0.00239764,-0.0648819 0.00167323,-0.0287756 0.00247244,-0.0504252 0.00247244,-0.064878 0,-0.0149882 -0.000799213,-0.037437 -0.00247244,-0.0674094 -0.00159449,-0.0299764 -0.00239764,-0.0524921 -0.00239764,-0.0674094 0,-0.00246457 0.00175984,-0.00393307 0.00535039,-0.00433071 0.0212402,-0.00233071 0.0372087,-0.0035315 0.0479882,-0.0035315 0.00151969,0 0.00375984,0.00273228 0.00655118,0.00805906 0.0376929,0.0692087 0.0701929,0.130957 0.0972598,0.185378 0.0064685,0.0127244 0.0102205,0.0191181 0.0115,0.0191181 0.00159449,0 0.00495276,-0.00519291 0.0100591,-0.0155866 0.0212441,-0.0421654 0.050626,-0.10478 0.0881575,-0.187776 0.00239764,-0.00506299 0.00495276,-0.00759449 0.00774409,-0.00759449 0.00535433,0 0.0133386,0.000267717 0.0239567,0.000799213 0.0107008,0.000468504 0.018685,0.000732283 0.0240394,0.000732283 0.00391339,0 0.00582677,0.00159843 0.00582677,0.00473228 0,0.0149173 -0.000559055,0.0374331 -0.00175591,0.0674094 -0.00119685,0.0299724 -0.00175984,0.0524213 -0.00175984,0.0674094 0,0.0143228 0.000641732,0.0357717 0.00199606,0.0644134 0.0013622,0.0286417 0.00199606,0.0500236 0.00199606,0.0642126z"/>
   <path id="_150315872" class="fil4 str0" d="M5.95389 3.34596c0,0.00206299 -0.000637795,0.00505906 -0.00183858,0.00899213 -0.00143701,0.00492913 -0.00231496,0.0079252 -0.00263386,0.00899213 -0.000397638,0.00466142 -0.00151969,0.0115236 -0.00327165,0.0204488 -0.000720472,0.00233071 -0.00279528,0.0035315 -0.00607087,0.0035315 -0.00151575,0 -0.0044685,-0.000267717 -0.0088622,-0.000799213 -0.0191693,-0.00233465 -0.0488701,-0.00346457 -0.0891181,-0.00346457 -0.0114173,0 -0.0285866,0.000200787 -0.0515039,0.000732283 -0.0229173,0.000531496 -0.0400866,0.000799213 -0.0514252,0.000799213 -0.00518898,0 -0.00774803,-0.00186614 -0.00774803,-0.00566142 0,-0.0145866 0.00096063,-0.036437 0.00295669,-0.0656772 0.00191732,-0.0291772 0.00287402,-0.0510906 0.00287402,-0.0656811 0,-0.0147874 -0.000877953,-0.0424291 -0.00279528,-0.0829291 -0.000314961,-0.0103898 -0.00119685,-0.0259134 -0.00255118,-0.0466299l-0.000240157 -0.00272835c-0.000161417,-0.003 0.00183465,-0.00446457 0.00606693,-0.00446457 0.0109409,0 0.0273071,0.000267717 0.0491102,0.000732283 0.021878,0.000535433 0.038248,0.000799213 0.049185,0.000799213 0.0103858,0 0.0260354,-0.00026378 0.046878,-0.000799213 0.0208425,-0.000464567 0.0364094,-0.000732283 0.046874,-0.000732283 0.00734252,0 0.0113386,0.00186614 0.0119724,0.00566142 0.00327559,0.017122 0.00487402,0.0278465 0.00487402,0.0319764 0,0.00299606 -0.00167717,0.00446063 -0.0051063,0.00446063 -0.0132598,0 -0.0333858,-0.000598425 -0.0602913,-0.00179921 -0.0268307,-0.00126378 -0.0471142,-0.0018622 -0.060689,-0.0018622 -0.0127756,0 -0.0208425,0.00139764 -0.0241929,0.00425984 -0.00335433,0.00286614 -0.0050315,0.00999213 -0.0050315,0.0213189l0 0.0290394c0,0.00792913 0.00023622,0.0125906 0.000716535,0.0138543 0.0013622,0.00406693 0.00542913,0.00606299 0.0121417,0.00606299 0.00191339,0 0.00454724,-6.69291e-005 0.00798425,-0.000200787 0.00359055,0 0.00622441,0 0.00790551,0 0.0305827,0 0.0580512,-0.000464567 0.0824055,-0.00139764 0.00950394,-0.000200787 0.0206811,-0.000866142 0.0336181,-0.00193307 0.00327559,-0.00026378 0.00494882,0.000933071 0.00494882,0.0035315 0,0.00412992 -0.000555118,0.0105236 -0.00175591,0.0191181 -0.00119685,0.00859449 -0.00175591,0.0150551 -0.00175591,0.019315 0,0.00233465 -0.00231496,0.0035315 -0.00702756,0.0035315 -0.00183465,0 -0.00878346,-0.000464567 -0.0208425,-0.00139764 -0.00870079,-0.000732283 -0.0283425,-0.00113386 -0.0589291,-0.00113386 -0.0257126,0 -0.0420039,0.000267717 -0.0488701,0.000732283 -0.00622835,0.000401575 -0.00982283,0.00313386 -0.0107795,0.00819291 0.000161417,-0.000866142 0.000240157,0.00412992 0.000240157,0.0150551l0 0.0289094c0,0.0135236 0.00247244,0.0219803 0.00750394,0.025378 0.00391339,0.00273228 0.0136535,0.00406299 0.0292283,0.00406299l0.0257087 -0.00019685c0.0109409,0 0.0416024,-0.00153543 0.0919921,-0.00466535l0.00351575 -0.00019685c0.00311417,-0.000267717 0.00462992,0.00133071 0.00462992,0.0048622z"/>
   <path id="_150315872" class="fil4 str0" d="M6.28448 3.11568c0,0.0149882 -0.000637795,0.0375669 -0.00183858,0.0677441 -0.00127165,0.0301732 -0.00191339,0.0528228 -0.00191339,0.067874 0,0.014189 0.00015748,0.035437 0.000480315,0.063748 0.000314961,0.028311 0.000476378,0.0494921 0.000476378,0.0636811 0,0.00433071 -0.00191732,0.00646063 -0.00583071,0.00646063 -0.00231102,0 -0.00582677,-0.000200787 -0.0105354,-0.000598425 -0.0047126,-0.000401575 -0.00822835,-0.000602362 -0.0105394,-0.000602362 -0.00248031,0 -0.00631102,0.000200787 -0.0114213,0.000602362 -0.00519291,0.000397638 -0.00902362,0.000598425 -0.0115,0.000598425 -0.00279134,0 -0.00614961,-0.00212992 -0.0100591,-0.00646063 -0.0337008,-0.0378346 -0.0847244,-0.0943228 -0.15324,-0.169394 -0.0106181,-0.0114567 -0.0167677,-0.0177835 -0.0184449,-0.0191142 -0.00159843,0 -0.00239764,0.00266142 -0.00239764,0.00799213 0,0.0200512 0.000401575,0.0501575 0.00120079,0.0902559 0.000795276,0.0401693 0.00119685,0.0702756 0.00119685,0.0902598 0,0.00433071 -0.00159843,0.00646063 -0.0047126,0.00646063 -0.00263386,0 -0.00670866,-0.000200787 -0.0121339,-0.000598425 -0.00551181,-0.000401575 -0.00950787,-0.000602362 -0.0122205,-0.000602362 -0.00279528,0 -0.00694882,0.000200787 -0.0124567,0.000602362 -0.00559055,0.000397638 -0.00974016,0.000598425 -0.0125394,0.000598425 -0.00391339,0 -0.00582677,-0.00133071 -0.00582677,-0.00392913 0,-0.0142559 0.00080315,-0.0358386 0.00239764,-0.0646811 0.00167323,-0.0287756 0.00247244,-0.0504252 0.00247244,-0.064878 0,-0.0157205 -0.000716535,-0.0440945 -0.00207087,-0.085063 -0.000322835,-0.0106575 -0.00111811,-0.0267087 -0.0023189,-0.0480276l-0.000240157 -0.00252756c-0.000161417,-0.00193307 0.00167323,-0.003 0.00558661,-0.00313386 0.0101417,-0.000129921 0.0180472,-0.000397638 0.023878,-0.000799213 0.00215748,-0.000129921 0.00631102,-0.000598425 0.012378,-0.0015315 0.00511417,-0.000799213 0.0091811,-0.00119685 0.0121339,-0.00119685 0.00144094,0 0.00383858,0.00192913 0.00727165,0.00566142 0.0358543,0.0410984 0.0907913,0.102248 0.164732,0.183445 0.00327559,0.00339764 0.00631102,0.00632677 0.0091063,0.00879134 0.00111811,-0.00546063 0.00159843,-0.0179173 0.00159843,-0.0374331 0,-0.0169213 -0.000720472,-0.0422992 -0.00215748,-0.0761378 -0.00151969,-0.0338386 -0.00223622,-0.0591496 -0.00223622,-0.075937 0,-0.00425984 0.00151575,-0.0063937 0.00462992,-0.0063937 0.00287402,0 0.0071063,0.000200787 0.0127756,0.000535433 0.00567323,0.000397638 0.00998031,0.000598425 0.0127756,0.000598425 0.00295669,0 0.00742913,-0.000200787 0.0133386,-0.000598425 0.00590945,-0.000334646 0.010378,-0.000535433 0.0133346,-0.000535433 0.00327165,0 0.00487008,0.00140157 0.00487008,0.00426378z"/>
   <path id="_150315872" class="fil4 str0" d="M6.55167 3.14826c0,0.0033937 -0.00135827,0.00512598 -0.00415354,0.00512598 -0.00438976,0 -0.0320197,-0.000799213 -0.0828898,-0.00239764 -0.00135433,0.0397008 -0.0020748,0.0715394 -0.0020748,0.0954528 0,0.0149882 0.000641732,0.037437 0.00199606,0.0673465 0.00135827,0.0299055 0.00199606,0.0523543 0.00199606,0.0672756 0,0.00273228 -0.00223228,0.00412992 -0.0067874,0.00412992 -0.00279134,0 -0.0071063,-0.000200787 -0.0128543,-0.000598425 -0.00574803,-0.000401575 -0.0101417,-0.000602362 -0.0130984,-0.000602362 -0.00279134,0 -0.00710236,0.000200787 -0.0128543,0.000602362 -0.00583071,0.000397638 -0.0100591,0.000598425 -0.0129331,0.000598425 -0.00383858,0 -0.00583465,-0.00159843 -0.00583465,-0.0048622 0,-0.0148543 0.00080315,-0.0371024 0.00224016,-0.066878 0.00151969,-0.0297087 0.00223622,-0.0520236 0.00223622,-0.0670118 0,-0.0231772 -0.000877953,-0.0549528 -0.00255512,-0.0954528 -0.040248,0.00213386 -0.0697126,0.00312992 -0.0884764,0.00312992 -0.00183858,0 -0.00279528,-0.000665354 -0.00279528,-0.00192913 0,-0.00233071 0.000716535,-0.00572835 0.0020748,-0.010126 0.00175591,-0.00572835 0.00279528,-0.00912598 0.00311417,-0.0101929 0.00023622,-0.00452756 0.00135827,-0.0108543 0.00327165,-0.0189173 0.000724409,-0.00166535 0.00207874,-0.0025315 0.00391339,-0.0025315l0.00287402 0.000200787c0.0551811,0.00273228 0.0915945,0.00406299 0.10924,0.00406299 0.0155709,0 0.0410433,-0.000933071 0.0764961,-0.00292913 0.0241181,-0.00126772 0.0341811,-0.00193307 0.030189,-0.00193307 0.00399213,0 0.00630709,0.00120079 0.0067874,0.0035315 -0.000322835,-0.00146457 -0.000480315,0.0048622 -0.000480315,0.0189173 0,0.00173228 0.00023622,0.00433071 0.000720472,0.0079252 0.000393701,0.0035315 0.000637795,0.00626378 0.000637795,0.00806299z"/>
   <polygon id="_150315800" class="fil1 str0" points="1.68117,2.81682 2.41418,2.81682 1.34776,3.28728 0.679787,3.29248 0.680783,3.21749 0.960323,3.21707 0.967988,3.12139 1.20066,3.12104 1.20099,2.99865 1.45083,2.99944 1.44963,2.90524 1.68258,2.90585 "/>
   <path id="_150892712" class="fil2 str0" d="M6.41743 1.58088l0.247343 0 0.124957 0.323339 -0.372299 0.00143701c-0.0391693,0.000149606 -0.0712205,-0.0260984 -0.0712205,-0.0579961l0 -0.208783c0,-0.0318976 0.0320472,-0.0579961 0.0712205,-0.0579961z"/>
  </g>
 </g>
</svg>
