<svg height="512pt" viewBox="0 0 512 512" width="512pt" xmlns="http://www.w3.org/2000/svg"><path d="m486.398438 512h-392.53125c-14.113282 0-25.601563-11.484375-25.601563-25.601562v-392.53125c0-14.113282 11.488281-25.601563 25.601563-25.601563h392.53125c14.117187 0 25.601562 11.488281 25.601562 25.601563v392.53125c0 14.117187-11.484375 25.601562-25.601562 25.601562zm-392.53125-426.667969c-4.703126 0-8.535157 3.824219-8.535157 8.535157v392.53125c0 4.710937 3.832031 8.535156 8.535157 8.535156h392.53125c4.710937 0 8.535156-3.824219 8.535156-8.535156v-392.53125c0-4.710938-3.824219-8.535157-8.535156-8.535157zm0 0"/><path d="m76.800781 443.734375h-51.199219c-14.117187 0-25.601562-11.488281-25.601562-25.601563v-392.53125c0-14.117187 11.484375-25.601562 25.601562-25.601562h392.53125c14.113282 0 25.601563 11.484375 25.601563 25.601562v51.199219c0 4.71875-3.824219 8.53125-8.535156 8.53125h-341.332031c-4.703126 0-8.535157 3.824219-8.535157 8.535157v341.332031c0 4.71875-3.820312 8.535156-8.53125 8.535156zm-51.199219-426.667969c-4.703124 0-8.535156 3.824219-8.535156 8.535156v392.53125c0 4.710938 3.832032 8.535157 8.535156 8.535157h42.664063v-332.800781c0-14.113282 11.488281-25.601563 25.601563-25.601563h332.800781v-42.664063c0-4.710937-3.824219-8.535156-8.535157-8.535156zm0 0"/><path d="m290.132812 324.265625c-18.824218 0-34.132812-15.308594-34.132812-34.132813 0-18.824218 15.308594-34.132812 34.132812-34.132812 18.824219 0 34.132813 15.308594 34.132813 34.132812 0 18.824219-15.316406 34.132813-34.132813 34.132813zm0-51.199219c-9.410156 0-17.066406 7.65625-17.066406 17.066406 0 9.414063 7.65625 17.066407 17.066406 17.066407 9.414063 0 17.066407-7.652344 17.066407-17.066407 0-9.410156-7.652344-17.066406-17.066407-17.066406zm0 0"/><path d="m196.265625 324.265625c-18.824219 0-34.132813-15.308594-34.132813-34.132813 0-18.824218 15.308594-34.132812 34.132813-34.132812s34.132813 15.308594 34.132813 34.132812c0 18.824219-15.316407 34.132813-34.132813 34.132813zm0-51.199219c-9.410156 0-17.066406 7.65625-17.066406 17.066406 0 9.414063 7.65625 17.066407 17.066406 17.066407 9.414063 0 17.066406-7.652344 17.066406-17.066407 0-9.410156-7.652343-17.066406-17.066406-17.066406zm0 0"/><path d="m384 324.265625c-18.824219 0-34.132812-15.308594-34.132812-34.132813 0-18.824218 15.308593-34.132812 34.132812-34.132812s34.132812 15.308594 34.132812 34.132812c0 18.824219-15.316406 34.132813-34.132812 34.132813zm0-51.199219c-9.414062 0-17.066406 7.65625-17.066406 17.066406 0 9.414063 7.652344 17.066407 17.066406 17.066407s17.066406-7.652344 17.066406-17.066407c0-9.410156-7.652344-17.066406-17.066406-17.066406zm0 0"/></svg>